<svg xmlns="http://www.w3.org/2000/svg" width="32" height="32" fill="none"><path stroke="#a855f7" stroke-linecap="round" stroke-linejoin="round" stroke-width="2.667" d="M26.667 2.667H5.333a2.667 2.667 0 0 0-2.666 2.666v5.334a2.667 2.667 0 0 0 2.666 2.666h21.334a2.667 2.667 0 0 0 2.666-2.666V5.333a2.667 2.667 0 0 0-2.666-2.666M26.667 18.667H5.333a2.667 2.667 0 0 0-2.666 2.666v5.334a2.667 2.667 0 0 0 2.666 2.666h21.334a2.667 2.667 0 0 0 2.666-2.666v-5.334a2.667 2.667 0 0 0-2.666-2.666M8 8h.013M8 24h.013"/></svg>