<svg xmlns="http://www.w3.org/2000/svg" width="32" height="32" fill="none"><path stroke="#a855f7" stroke-linecap="round" stroke-linejoin="round" stroke-width="2.667" d="M3.96 17.227a2.67 2.67 0 0 0-1.293 2.28v4.32a2.67 2.67 0 0 0 1.293 2.28l4 2.4a2.67 2.67 0 0 0 2.747 0L16 25.333V18l-6.667-4zM9.333 22l-6.32-3.8M9.333 22 16 18M9.333 22v6.893M16 18v7.333l5.293 3.174a2.67 2.67 0 0 0 2.747 0l4-2.4a2.67 2.67 0 0 0 1.293-2.28v-4.32a2.67 2.67 0 0 0-1.293-2.28L22.667 14zM22.667 22 16 18M22.667 22l6.32-3.8M22.667 22v6.893"/><path stroke="#a855f7" stroke-linecap="round" stroke-linejoin="round" stroke-width="2.667" d="M10.627 5.893a2.67 2.67 0 0 0-1.294 2.28V14L16 18l6.667-4V8.173a2.67 2.67 0 0 0-1.294-2.28l-4-2.4a2.67 2.67 0 0 0-2.746 0zM16 10.667l-6.32-3.8M16 10.667l6.32-3.8M16 18v-7.333"/></svg>