<svg xmlns="http://www.w3.org/2000/svg" width="32" height="32" fill="none"><path stroke="#a855f7" stroke-linecap="round" stroke-linejoin="round" stroke-width="2.667" d="M16 10.667c6.627 0 12-1.791 12-4s-5.373-4-12-4-12 1.79-12 4 5.373 4 12 4"/><path stroke="#a855f7" stroke-linecap="round" stroke-linejoin="round" stroke-width="2.667" d="M4 6.667v18.666c0 1.061 1.264 2.079 3.515 2.829 2.25.75 5.302 1.171 8.485 1.171s6.235-.421 8.485-1.171S28 26.394 28 25.333V6.667"/><path stroke="#a855f7" stroke-linecap="round" stroke-linejoin="round" stroke-width="2.667" d="M4 16c0 1.06 1.264 2.078 3.515 2.828C9.765 19.578 12.817 20 16 20s6.235-.421 8.485-1.172S28 17.061 28 16"/></svg>